<?xml version="1.0" encoding="UTF-8" standalone="no"?>
<svg
   xmlns:dc="http://purl.org/dc/elements/1.1/"
   xmlns:cc="http://creativecommons.org/ns#"
   xmlns:rdf="http://www.w3.org/1999/02/22-rdf-syntax-ns#"
   xmlns:svg="http://www.w3.org/2000/svg"
   xmlns="http://www.w3.org/2000/svg"
   xmlns:sodipodi="http://sodipodi.sourceforge.net/DTD/sodipodi-0.dtd"
   xmlns:inkscape="http://www.inkscape.org/namespaces/inkscape"
   inkscape:version="1.0beta2 (2b71d25, 2019-12-03)"
   sodipodi:docname="iconStackedit.svg"
   id="svg148"
   style="fill-rule:evenodd;clip-rule:evenodd;stroke-linejoin:round;stroke-miterlimit:1.41421;"
   xml:space="preserve"
   version="1.1"
   viewBox="0 0 24 24"
   height="100%"
   width="100%"><metadata
     id="metadata152"><rdf:RDF><cc:Work
         rdf:about=""><dc:format>image/svg+xml</dc:format><dc:type
           rdf:resource="http://purl.org/dc/dcmitype/StillImage" /></cc:Work></rdf:RDF></metadata><sodipodi:namedview
     inkscape:current-layer="svg148"
     inkscape:window-maximized="0"
     inkscape:window-y="23"
     inkscape:window-x="0"
     inkscape:cy="14.912706"
     inkscape:cx="12.080587"
     inkscape:zoom="10.187228"
     showgrid="false"
     id="namedview150"
     inkscape:window-height="855"
     inkscape:window-width="1440"
     inkscape:pageshadow="2"
     inkscape:pageopacity="0"
     guidetolerance="10"
     gridtolerance="10"
     objecttolerance="10"
     borderopacity="1"
     inkscape:document-rotation="0"
     bordercolor="#666666"
     pagecolor="#ffffff" /><path
     id="path99"
     style="fill:none;"
     d="M23.997,6.002c0,-3.311 -2.688,-5.999 -5.999,-5.999l-11.999,0c-3.311,0 -5.999,2.688 -5.999,5.999l0,11.999c0,3.311 2.688,5.999 5.999,5.999l11.999,0c3.311,0 5.999,-2.688 5.999,-5.999l0,-11.999Z" /><clipPath
     id="_clip1"><path
       id="path101"
       d="M23.997,6.002c0,-3.311 -2.688,-5.999 -5.999,-5.999l-11.999,0c-3.311,0 -5.999,2.688 -5.999,5.999l0,11.999c0,3.311 2.688,5.999 5.999,5.999l11.999,0c3.311,0 5.999,-2.688 5.999,-5.999l0,-11.999Z" /></clipPath><g
     style="filter:url(#filter206)"
     id="g120"
     clip-path="url(#_clip1)"><path
       id="path104"
       style="fill:#ffd700;"
       d="M23.997,0.003l-24,0l12,12l12,-12Z" /><path
       id="path106"
       style="fill:#a5c700;"
       d="M-0.003,0.003l0,24l12,-12l-12,-12Z" /><path
       id="path108"
       style="fill:#ff8a00;"
       d="M-0.003,24.003l24,0l-12,-12l-12,12Z" /><path
       id="path110"
       style="fill:#66aefd;"
       d="M23.997,24.003l0,-24l-12,12l12,12Z" /><path
       id="path112"
       style="fill:url(#_Linear2);"
       d="M22.497,-1.497l-10.5,10.497l3,3.003l10.5,-10.5l-3,-3Z" /><path
       id="path114"
       style="fill:url(#_Linear3);"
       d="M25.499,22.503l-10.498,-10.5l-3.002,3l10.5,10.5l3,-3Z" /><path
       id="path116"
       style="fill:url(#_Linear4);"
       d="M1.497,25.501l10.5,-10.497l-3,-3.003l-10.5,10.5l3,3Z" /><path
       id="path118"
       style="fill:url(#_Linear5);"
       d="M-1.503,1.503l10.498,10.5l3.002,-3l-10.5,-10.5l-3,3Z" /></g><path
     id="path122"
     style="fill:#fff;"
     d="M21.75,5.852c0,-2.195 -1.782,-3.977 -3.977,-3.977l-11.546,0c-2.195,0 -3.977,1.782 -3.977,3.977l0,11.546c0,2.195 1.782,3.977 3.977,3.977l11.546,0c2.195,0 3.977,-1.782 3.977,-3.977l0,-11.546Z" /><path
     id="path124"
     style="fill:#737373;"
     d="M4.633,6.013l1.37,0l0,-1.828l1.399,0l0,1.828l1.696,0l0,-1.828l1.399,0l0,1.828l1.37,0l0,1.691l-1.37,0l0,1.902l1.37,0l0,1.69l-1.37,0l0,1.829l-1.399,0l0,-1.829l-1.696,0l0,1.829l-1.399,0l0,-1.829l-1.37,0l0,-1.69l1.37,0l0,-1.902l-1.37,0l0,-1.691Zm2.769,1.691l0,1.902l1.696,0l0,-1.902l-1.696,0Z" /><defs
     id="defs146"><linearGradient
       gradientTransform="matrix(-2.99995,-3,3,-2.99995,23.9974,3.00265)"
       gradientUnits="userSpaceOnUse"
       y2="0"
       x2="1"
       y1="0"
       x1="0"
       id="_Linear2"><stop
         id="stop126"
         style="stop-color:#66aefd;stop-opacity:1"
         offset="0" /><stop
         id="stop128"
         style="stop-color:#ffd700;stop-opacity:1"
         offset="1" /></linearGradient><linearGradient
       gradientTransform="matrix(3,-2.99995,2.99995,3,20.9987,24.0027)"
       gradientUnits="userSpaceOnUse"
       y2="0"
       x2="1"
       y1="0"
       x1="0"
       id="_Linear3"><stop
         id="stop131"
         style="stop-color:#ff8a00;stop-opacity:1"
         offset="0" /><stop
         id="stop133"
         style="stop-color:#66aefd;stop-opacity:1"
         offset="1" /></linearGradient><linearGradient
       gradientTransform="matrix(2.99995,3,-3,2.99995,-0.00255928,21.0013)"
       gradientUnits="userSpaceOnUse"
       y2="0"
       x2="1"
       y1="0"
       x1="0"
       id="_Linear4"><stop
         id="stop136"
         style="stop-color:#a5c700;stop-opacity:1"
         offset="0" /><stop
         id="stop138"
         style="stop-color:#ff8a00;stop-opacity:1"
         offset="1" /></linearGradient><linearGradient
       gradientTransform="matrix(-3,2.99995,-2.99995,-3,2.99744,0.00265252)"
       gradientUnits="userSpaceOnUse"
       y2="0"
       x2="1"
       y1="0"
       x1="0"
       id="_Linear5"><stop
         id="stop141"
         style="stop-color:#ffd700;stop-opacity:1"
         offset="0" /><stop
         id="stop143"
         style="stop-color:#a5c700;stop-opacity:1"
         offset="1" /></linearGradient><filter
       id="filter206"
       inkscape:label="Color Shift"
       style="color-interpolation-filters:sRGB;"><feColorMatrix
         id="feColorMatrix202"
         result="color1"
         values="248"
         type="hueRotate" /><feColorMatrix
         id="feColorMatrix204"
         result="color2"
         values="1"
         type="saturate" /></filter></defs></svg>
